<?xml version="1.0" standalone="no"?>
<!DOCTYPE svg PUBLIC "-//W3C//DTD SVG 20010904//EN"
 "http://www.w3.org/TR/2001/REC-SVG-20010904/DTD/svg10.dtd">
<svg version="1.0" xmlns="http://www.w3.org/2000/svg"
 width="1024.000000pt" height="1024.000000pt" viewBox="0 0 1024.000000 1024.000000"
 preserveAspectRatio="xMidYMid meet">

<g transform="translate(0.000000,1024.000000) scale(0.100000,-0.100000)"
fill="#000000" stroke="none">
<path d="M3345 8625 c-94 -17 -205 -59 -290 -108 -89 -51 -237 -199 -288 -287
-45 -78 -94 -202 -107 -272 -6 -31 -10 -666 -10 -1642 0 -1581 0 -1593 21
-1677 66 -266 243 -470 505 -579 153 -63 59 -61 1950 -57 1916 3 1744 -4 1909
72 227 103 376 270 467 525 l23 65 3 1600 c2 1176 0 1620 -8 1675 -14 85 -61
212 -111 296 -89 150 -285 307 -444 354 -22 6 -65 19 -95 28 -50 14 -218 16
-1755 18 -1371 2 -1714 0 -1770 -11z m3544 -229 c221 -85 360 -231 411 -433
20 -77 20 -107 18 -1673 l-3 -1595 -21 -55 c-44 -114 -77 -165 -159 -246 -97
-97 -192 -148 -313 -169 -63 -11 -392 -13 -1772 -12 -1624 2 -1697 3 -1745 21
-220 81 -378 244 -430 441 -13 51 -15 258 -15 1639 -1 1413 1 1587 15 1640 59
221 226 388 455 455 63 19 116 20 1775 18 l1710 -2 74 -29z"/>
<path d="M3506 8229 c-97 -20 -190 -72 -269 -151 -113 -113 -161 -229 -160
-388 0 -155 51 -278 160 -387 106 -107 245 -159 398 -150 96 5 199 34 249 70
l29 21 115 -120 c64 -65 235 -242 381 -393 146 -151 265 -279 264 -285 -1 -6
-14 -42 -27 -81 -30 -83 -34 -192 -10 -275 8 -30 16 -62 17 -71 1 -10 -76 -90
-193 -200 -107 -100 -257 -241 -334 -313 l-138 -130 -37 21 c-170 98 -412 54
-545 -98 -153 -175 -151 -439 5 -604 142 -150 345 -185 539 -93 65 31 149 121
190 203 31 63 35 80 38 170 3 78 -1 113 -15 160 l-19 60 155 147 c86 81 237
223 335 316 l179 170 31 -19 c49 -31 153 -59 215 -59 72 0 166 24 212 54 l35
24 200 -197 c109 -108 259 -253 332 -324 132 -127 132 -127 119 -155 -15 -28
-32 -96 -42 -167 -8 -58 19 -198 52 -264 64 -128 218 -238 369 -262 240 -38
473 123 540 374 42 157 -15 347 -139 469 -153 149 -366 180 -560 81 -57 -28
-46 -33 -153 72 -34 33 -110 107 -170 165 -60 58 -173 166 -250 241 l-140 135
20 55 c28 81 33 210 9 280 l-19 57 135 116 c75 63 160 136 188 161 l53 47 63
-26 c139 -55 259 -53 384 9 119 59 200 171 224 309 39 232 -130 463 -363 496
-307 44 -565 -270 -462 -561 l13 -37 -57 -54 c-64 -59 -287 -249 -307 -261 -8
-4 -42 7 -82 27 -119 60 -258 69 -366 23 l-49 -20 -57 59 c-32 32 -125 129
-207 214 -82 86 -216 225 -299 311 -82 85 -161 167 -174 182 l-24 26 21 44
c52 110 68 247 42 362 -39 174 -186 334 -363 395 -72 25 -209 34 -281 19z
m247 -243 c62 -30 132 -100 158 -158 32 -73 33 -201 1 -270 -27 -61 -99 -133
-160 -160 -67 -30 -210 -31 -267 -1 -66 35 -119 88 -153 151 -28 52 -32 70
-32 134 0 99 21 157 83 224 78 86 124 105 247 101 57 -2 98 -9 123 -21z m1422
-1581 c71 -41 110 -116 108 -206 -4 -177 -189 -276 -340 -183 -93 58 -131 190
-82 291 25 52 88 108 137 122 52 14 130 4 177 -24z"/>
<path d="M5769 5323 c-13 -16 -12 -17 4 -4 9 7 17 15 17 17 0 8 -8 3 -21 -13z"/>
<path d="M1310 2625 l0 -675 130 0 131 0 -1 436 c-1 240 0 437 2 439 2 2 76
-139 165 -313 l161 -317 86 -3 85 -3 34 63 c19 35 92 176 162 313 70 138 130
253 134 257 3 4 5 -191 3 -432 l-3 -440 135 0 136 0 0 675 0 676 -151 -3 -150
-3 -89 -170 c-49 -93 -135 -260 -191 -371 l-102 -200 -187 370 -187 371 -152
3 -151 3 0 -676z"/>
<path d="M3335 3290 c-3 -5 -14 -33 -24 -62 -16 -47 -127 -343 -242 -648 -22
-58 -69 -184 -104 -280 -35 -96 -77 -211 -94 -255 -17 -44 -31 -83 -31 -88 0
-4 64 -6 142 -5 l143 3 50 140 50 140 259 0 259 0 33 -95 c19 -52 41 -116 50
-142 l15 -47 145 -3 c79 -2 144 0 144 4 0 4 -5 19 -11 35 -6 15 -37 102 -69
193 -32 91 -108 300 -170 465 -139 373 -136 365 -166 453 -13 40 -32 90 -43
110 -10 20 -21 49 -25 65 l-6 27 -150 0 c-86 0 -151 -4 -155 -10z m160 -337
c4 -10 29 -83 57 -163 27 -80 53 -154 58 -165 19 -40 50 -130 50 -142 0 -8
-46 -10 -175 -7 -96 2 -175 7 -175 11 0 8 32 97 85 238 35 94 75 217 75 232 0
19 17 16 25 -4z"/>
<path d="M4270 2623 l0 -678 135 3 135 3 2 217 3 217 190 6 c211 7 264 18 350
74 96 62 160 152 184 255 13 57 14 202 1 258 -27 114 -104 213 -205 263 -106
52 -158 58 -492 59 l-303 0 0 -677z m620 406 c86 -37 129 -128 110 -230 -6
-28 -10 -53 -10 -55 0 -2 -16 -22 -36 -44 -51 -57 -104 -70 -276 -70 l-138 0
0 210 0 210 151 0 c130 0 157 -3 199 -21z"/>
<path d="M5450 2625 l0 -675 415 0 415 0 0 125 0 125 -275 0 -275 0 0 550 0
550 -140 0 -140 0 0 -675z"/>
<path d="M6855 3203 c-21 -54 -53 -138 -73 -188 -54 -139 -392 -1054 -392
-1061 0 -2 65 -4 144 -4 l143 0 38 113 c21 61 44 127 52 145 l13 32 256 -2
257 -3 39 -110 c22 -60 45 -125 51 -142 l10 -33 148 0 149 0 -11 28 c-6 15
-28 74 -50 132 -21 58 -53 146 -72 195 -19 50 -105 279 -191 510 -87 231 -165
435 -173 453 l-15 32 -143 0 -143 0 -37 -97z m201 -285 c9 -29 48 -138 85
-242 38 -104 67 -191 65 -193 -6 -6 -346 -9 -346 -3 0 3 22 66 49 140 26 74
63 178 80 230 18 52 34 101 36 108 7 21 13 14 31 -40z"/>
<path d="M7830 2625 l0 -675 130 0 130 0 0 417 0 417 30 -40 c74 -98 255 -345
295 -404 25 -36 98 -137 163 -225 l117 -160 125 -3 125 -3 0 676 0 675 -132 0
-133 0 -2 -431 -3 -430 -64 88 c-36 48 -157 216 -269 373 -113 157 -225 311
-249 343 l-44 57 -110 0 -109 0 0 -675z"/>
</g>
</svg>
